<?xml version="1.0" standalone="no"?>
<!DOCTYPE svg PUBLIC "-//W3C//DTD SVG 20010904//EN"
 "http://www.w3.org/TR/2001/REC-SVG-20010904/DTD/svg10.dtd">
<svg version="1.0" xmlns="http://www.w3.org/2000/svg"
 width="956.000000pt" height="724.000000pt" viewBox="0 0 956.000000 724.000000"
 preserveAspectRatio="xMidYMid meet">

<g transform="translate(0.000000,724.000000) scale(0.100000,-0.100000)"
fill="#000000" stroke="none">
<path d="M4226 7188 c19 -178 106 -322 255 -418 108 -70 279 -97 413 -66 219
52 386 244 410 474 l7 62 -171 0 -170 0 0 -27 c-1 -77 -77 -164 -160 -182
-113 -24 -232 56 -247 167 l-6 42 -168 0 -168 0 5 -52z"/>
<path d="M3580 6420 c-304 -22 -675 -141 -928 -298 -259 -161 -492 -380 -660
-621 -48 -68 -60 -79 -145 -124 -183 -98 -391 -258 -534 -412 -296 -316 -479
-683 -557 -1115 -38 -210 -39 -547 -1 -762 44 -255 135 -507 258 -717 199
-341 496 -627 852 -823 69 -37 87 -53 125 -110 115 -166 221 -284 375 -413
346 -292 750 -464 1185 -504 156 -15 2274 -15 2430 0 181 16 391 66 566 133
392 149 752 433 992 783 41 58 58 73 127 111 609 334 1017 913 1115 1581 27
186 28 484 1 667 -21 140 -36 208 -80 349 -160 514 -529 961 -1017 1230 -86
48 -99 59 -146 126 -207 297 -523 568 -834 716 -122 57 -263 108 -404 143
-256 65 -194 62 -1455 65 -632 2 -1202 -1 -1265 -5z m2432 -346 c264 -36 485
-114 711 -250 119 -72 258 -186 244 -200 -3 -3 -54 -1 -113 5 -146 15 -4024
15 -4178 1 -64 -6 -113 -7 -118 -2 -10 10 152 137 249 196 149 89 360 179 498
212 222 52 215 52 1447 53 992 1 1163 -1 1260 -15z m948 -796 c254 -54 447
-126 615 -228 313 -190 545 -440 704 -758 210 -421 246 -957 95 -1412 -133
-399 -414 -759 -756 -968 -160 -98 -365 -186 -515 -221 -258 -60 -103 -56
-2338 -56 -1932 0 -2046 1 -2150 18 -268 45 -482 124 -702 258 -159 98 -356
276 -473 429 -166 218 -284 474 -335 725 -132 653 51 1277 507 1721 274 268
633 446 993 494 50 6 97 13 105 15 8 2 951 2 2095 1 1859 -2 2088 -4 2155 -18z
m-2195 -3973 c1144 0 2111 4 2148 8 65 7 68 7 58 -11 -12 -23 -158 -133 -256
-192 -142 -87 -354 -176 -500 -210 -246 -57 -203 -55 -1450 -55 -1250 0 -1207
-2 -1453 56 -157 37 -359 123 -509 217 -89 55 -230 159 -253 186 -13 16 -9 17
61 9 41 -4 1010 -8 2154 -8z"/>
<path d="M2575 5140 c-600 -106 -1095 -516 -1306 -1083 -70 -188 -102 -371
-102 -582 -1 -224 29 -394 105 -605 121 -334 387 -657 701 -848 196 -121 405
-196 647 -234 125 -19 4165 -19 4290 0 517 80 934 357 1212 805 114 182 197
416 228 637 16 109 16 372 0 475 -82 558 -427 1033 -935 1287 -136 68 -318
125 -488 152 -86 14 -336 16 -2174 15 -1940 -1 -2085 -2 -2178 -19z m4375
-203 c197 -41 398 -124 564 -234 100 -67 281 -246 359 -356 192 -269 286 -557
287 -875 0 -143 -10 -230 -41 -357 -88 -358 -318 -687 -620 -888 -167 -111
-374 -192 -600 -232 -87 -16 -247 -17 -2134 -16 -1663 2 -2056 5 -2125 16
-592 94 -1059 510 -1221 1087 -64 227 -66 521 -5 756 93 358 338 695 645 887
189 118 438 204 651 224 47 5 1001 8 2120 7 1888 -2 2041 -3 2120 -19z"/>
<path d="M2317 4403 c-11 -10 -8 -1046 3 -1164 23 -245 93 -404 242 -551 140
-138 319 -209 583 -233 159 -15 388 30 543 106 89 43 116 62 191 137 73 74 94
103 133 182 45 95 69 160 89 255 12 54 25 1208 15 1251 l-6 24 -259 0 -259 0
-5 -602 c-4 -665 -5 -671 -67 -769 -61 -95 -165 -142 -310 -141 -179 1 -296
87 -341 252 -9 32 -14 219 -18 650 l-6 605 -261 3 c-143 1 -263 -1 -267 -5z"/>
<path d="M4492 3453 l3 -958 265 0 265 0 0 955 0 955 -268 3 -267 2 2 -957z"/>
<path d="M5420 4396 c-20 -25 -8 -1164 14 -1273 73 -376 295 -588 681 -653 39
-6 133 -11 210 -11 268 1 475 66 610 192 180 169 255 342 276 639 5 80 9 363
7 630 l-3 485 -260 0 -260 0 -6 -600 c-5 -497 -8 -609 -21 -650 -36 -120 -79
-174 -175 -221 -50 -25 -72 -29 -161 -32 -154 -6 -246 35 -312 137 -66 103
-64 84 -70 756 l-5 610 -256 3 c-217 2 -258 0 -269 -12z"/>
</g>
</svg>
