<?xml version="1.0" standalone="no"?>
<!DOCTYPE svg PUBLIC "-//W3C//DTD SVG 20010904//EN"
 "http://www.w3.org/TR/2001/REC-SVG-20010904/DTD/svg10.dtd">
<svg version="1.0" xmlns="http://www.w3.org/2000/svg"
 width="296.000000pt" height="341.000000pt" viewBox="0 0 296.000000 341.000000"
 preserveAspectRatio="xMidYMid meet">

<g transform="translate(0.000000,341.000000) scale(0.100000,-0.100000)"
fill="#000000" stroke="none">
<path d="M1300 3376 c0 -40 34 -92 80 -124 30 -20 45 -23 105 -20 54 2 78 9
103 26 37 27 72 88 72 127 0 24 -2 25 -59 25 -55 0 -59 -2 -65 -25 -14 -56
-93 -55 -118 0 -10 22 -17 25 -65 25 l-53 0 0 -34z"/>
<path d="M985 3125 c-167 -38 -304 -123 -411 -255 -30 -38 -75 -81 -100 -95
-346 -203 -458 -663 -246 -1014 50 -83 156 -188 236 -235 38 -22 76 -54 92
-78 52 -75 171 -176 258 -218 149 -73 152 -74 621 -78 291 -2 443 0 495 8 184
29 356 133 466 282 20 27 57 59 89 77 128 72 255 228 308 376 70 200 59 393
-34 584 -50 102 -174 236 -268 292 -39 23 -77 57 -106 95 -84 108 -215 199
-359 247 -58 20 -87 21 -521 23 -361 2 -473 0 -520 -11z m980 -119 c74 -21
172 -69 215 -104 l32 -27 -736 0 c-825 0 -765 -7 -631 69 137 78 193 85 670
82 334 -2 399 -5 450 -20z m270 -261 c337 -71 551 -415 465 -749 -29 -113 -73
-190 -161 -278 -60 -61 -94 -86 -160 -118 -148 -71 -156 -71 -940 -68 l-694 3
-80 28 c-109 39 -178 83 -256 164 -113 117 -169 256 -169 422 0 200 100 392
262 502 72 49 112 67 203 90 63 16 135 18 765 18 573 1 707 -2 765 -14z m-53
-1352 c-50 -41 -140 -83 -218 -103 -71 -18 -112 -20 -488 -20 -455 0 -471 2
-601 64 -38 19 -83 45 -98 58 l-28 23 730 0 730 0 -27 -22z"/>
<path d="M713 2705 c-106 -23 -188 -69 -273 -154 -85 -83 -127 -155 -156 -262
-83 -314 126 -642 451 -704 63 -12 197 -15 746 -15 759 0 764 0 904 73 301
156 398 543 206 826 -79 116 -214 207 -350 236 -101 21 -1431 21 -1528 0z
m1532 -79 c222 -59 381 -277 369 -504 -11 -216 -166 -401 -381 -457 -80 -21
-1429 -22 -1508 -1 -219 57 -373 244 -381 461 -5 145 47 274 151 375 62 59
172 121 235 133 14 2 349 5 745 6 573 1 730 -2 770 -13z"/>
<path d="M886 2459 c-99 -14 -167 -64 -208 -154 -22 -47 -23 -61 -23 -275 l0
-225 93 -3 92 -3 0 213 c0 195 2 216 20 246 44 71 152 71 196 -1 17 -28 19
-56 22 -244 l4 -213 89 0 89 0 0 223 c0 261 -7 292 -76 361 -66 66 -170 92
-298 75z"/>
<path d="M1390 2145 l0 -325 90 0 90 0 0 325 0 325 -90 0 -90 0 0 -325z"/>
<path d="M1934 2459 c-102 -10 -177 -66 -221 -165 -14 -32 -18 -78 -21 -267
l-4 -228 94 3 93 3 5 215 c5 232 9 249 60 275 69 36 149 2 170 -73 5 -20 10
-124 10 -230 l0 -193 93 3 92 3 0 215 c0 255 -10 296 -82 366 -65 64 -157 87
-289 73z"/>
<path d="M154 1610 c-35 -14 -95 -82 -120 -135 -31 -68 -39 -133 -24 -197 18
-74 32 -100 118 -208 110 -139 131 -159 197 -191 51 -25 72 -29 141 -29 70 0
89 4 142 31 78 38 102 71 102 137 0 54 27 16 -352 493 -37 47 -79 91 -93 97
-30 14 -80 15 -111 2z m92 -157 c15 -21 96 -123 179 -228 83 -104 154 -196
159 -203 11 -18 -68 -52 -122 -52 -82 0 -133 41 -266 218 -58 77 -72 117 -63
183 6 45 50 119 71 119 7 0 26 -17 42 -37z"/>
<path d="M2691 1607 c-28 -13 -406 -483 -434 -539 -37 -74 -2 -142 97 -189 52
-25 73 -29 143 -29 72 0 88 4 145 33 56 28 76 48 171 167 125 155 142 197 135
314 -11 170 -145 297 -257 243z m92 -147 c56 -66 59 -152 8 -231 -16 -24 -60
-82 -98 -129 -77 -96 -130 -130 -201 -130 -38 0 -122 32 -122 46 0 3 69 92
153 197 84 106 167 211 185 235 19 23 37 42 42 42 5 0 19 -13 33 -30z"/>
<path d="M845 1080 c-11 -4 -31 -20 -45 -35 l-25 -27 0 -421 0 -422 25 -45
c33 -58 96 -105 160 -119 78 -17 981 -15 1047 2 66 17 125 65 155 125 23 47
23 51 26 449 3 446 3 444 -61 483 -31 19 -54 20 -647 19 -338 0 -624 -4 -635
-9z m1213 -499 c-3 -363 -4 -380 -23 -401 -44 -49 -52 -50 -560 -50 -522 0
-529 1 -559 59 -14 26 -16 84 -16 401 l0 370 580 0 581 0 -3 -379z"/>
<path d="M1120 857 c-30 -16 -51 -37 -67 -67 -21 -40 -23 -55 -23 -215 0 -160
2 -175 23 -215 16 -30 37 -51 67 -67 42 -23 49 -23 359 -23 177 0 332 4 352
10 19 5 47 22 62 37 49 52 57 89 57 258 0 169 -8 206 -57 258 -15 15 -43 32
-62 37 -20 6 -175 10 -352 10 -310 0 -317 0 -359 -23z m700 -107 c18 -18 20
-33 20 -175 0 -142 -2 -157 -20 -175 -19 -19 -33 -20 -332 -20 -276 0 -314 2
-330 17 -16 14 -18 34 -18 176 0 135 3 163 17 179 15 17 39 18 330 18 300 0
314 -1 333 -20z"/>
<path d="M1282 658 c-7 -7 -12 -40 -12 -78 0 -38 5 -71 12 -78 13 -13 391 -18
422 -6 13 5 16 22 16 78 0 43 -5 77 -12 84 -17 17 -409 17 -426 0z"/>
</g>
</svg>
