<?xml version="1.0" encoding="UTF-8"?>
<svg id="Capa_2" data-name="Capa 2" xmlns="http://www.w3.org/2000/svg" viewBox="0 0 124.01 157.15">
  <defs>
    <style>
      .cls-1 {
        fill: none;
        stroke-width: 4.87px;
      }

      .cls-1, .cls-2 {
        stroke: #1d1d1b;
        stroke-miterlimit: 10;
      }

      .cls-3 {
        fill: #e62b3c;
      }

      .cls-3, .cls-4, .cls-5 {
        stroke-width: 0px;
      }

      .cls-4, .cls-2 {
        fill: #fff;
      }

      .cls-5 {
        fill: #1d1d1b;
      }

      .cls-2 {
        stroke-width: 5.69px;
      }
    </style>
  </defs>
  <g id="Capa_1-2" data-name="Capa 1">
    <g>
      <g>
        <path class="cls-4" d="m105.37,27.68c-5.83-9.26-16.15-15.42-27.89-15.42h-30.95c-11.73,0-22.05,6.16-27.89,15.42C7.6,33.02,0,44.33,0,57.37v.7c0,13.05,7.6,24.34,18.62,29.67,5.83,9.28,16.16,15.45,27.91,15.45h30.95c11.75,0,22.08-6.17,27.91-15.43,11.01-5.33,18.62-16.64,18.62-29.68v-.7c0-13.06-7.62-24.35-18.63-29.7Z"/>
        <path class="cls-5" d="m62,8.36c4.61,0,8.36-3.75,8.36-8.36h-5.23c0,1.72-1.4,3.13-3.13,3.13s-3.13-1.4-3.13-3.13h-5.23c0,4.61,3.75,8.36,8.36,8.36Z"/>
        <path class="cls-5" d="m105.37,27.68c-5.83-9.26-16.15-15.42-27.89-15.42h-30.95c-11.73,0-22.05,6.16-27.89,15.42C7.6,33.02,0,44.33,0,57.37v.7c0,13.05,7.6,24.34,18.62,29.67,5.83,9.28,16.16,15.45,27.91,15.45h30.95c11.75,0,22.08-6.17,27.91-15.43,11.01-5.33,18.62-16.64,18.62-29.68v-.7c0-13.06-7.62-24.35-18.63-29.7Zm13.42,30.4c0,8.37-3.7,15.86-9.54,20.94-1.15,1.01-2.39,1.92-3.69,2.71-1.22.75-2.5,1.41-3.83,1.97-3.3,1.36-6.9,2.13-10.69,2.13h-58.06c-3.8,0-7.41-.76-10.71-2.14-1.33-.55-2.62-1.22-3.83-1.97-1.3-.8-2.53-1.71-3.69-2.71-5.83-5.09-9.52-12.57-9.52-20.93v-.7c0-8.35,3.67-15.82,9.5-20.93,1.15-.99,2.39-1.92,3.7-2.71,1.22-.75,2.5-1.41,3.83-1.97,3.3-1.38,6.9-2.14,10.71-2.14h58.06c3.79,0,7.39.76,10.69,2.13,1.33.55,2.62,1.22,3.83,1.97,1.3.8,2.53,1.71,3.69,2.71,5.83,5.09,9.54,12.57,9.54,20.94v.7Zm-41.31,39.88h-30.95c-7.25,0-13.86-2.78-18.8-7.31,1.71.26,3.46.41,5.25.41h58.06c1.79,0,3.53-.15,5.23-.41-4.94,4.53-11.55,7.31-18.8,7.31ZM46.53,17.49h30.95c7.25,0,13.86,2.78,18.8,7.31-1.71-.26-3.44-.41-5.23-.41h-58.06c-1.79,0-3.54.15-5.25.41,4.94-4.53,11.55-7.31,18.8-7.31Z"/>
        <path class="cls-5" d="m106.59,36.63c-1.1-.81-2.29-1.54-3.53-2.16-3.54-1.82-7.57-2.84-11.81-2.84h-58.5c-4.26,0-8.27,1.02-11.81,2.84-1.23.62-2.42,1.35-3.53,2.16-1.22.88-2.34,1.87-3.38,2.94-4.57,4.7-7.38,11.11-7.38,18.15s2.81,13.48,7.38,18.18c1.04,1.07,2.18,2.05,3.38,2.92,1.1.81,2.29,1.54,3.53,2.16,3.54,1.82,7.55,2.84,11.81,2.84h58.5c4.24,0,8.27-1.02,11.81-2.84,1.23-.62,2.42-1.35,3.53-2.16,1.2-.88,2.34-1.85,3.38-2.92,4.57-4.7,7.38-11.1,7.38-18.16s-2.81-13.47-7.38-18.16c-1.04-1.07-2.16-2.06-3.38-2.94Zm7.49,21.1c0,4.53-1.33,8.77-3.62,12.33-.81,1.28-1.75,2.47-2.81,3.54-.96.97-2,1.87-3.1,2.66-3.75,2.7-8.33,4.27-13.29,4.27h-58.5c-4.97,0-9.57-1.59-13.31-4.29-1.1-.78-2.14-1.67-3.09-2.65-1.04-1.07-1.98-2.26-2.81-3.54-2.29-3.56-3.62-7.8-3.62-12.33v-.02c0-4.55,1.33-8.77,3.62-12.33.83-1.27,1.77-2.45,2.81-3.54.94-.97,1.98-1.87,3.09-2.65,3.74-2.7,8.33-4.29,13.31-4.29h58.5c4.96,0,9.54,1.58,13.29,4.27,1.1.8,2.14,1.69,3.1,2.66,1.06,1.09,2,2.27,2.81,3.54,2.29,3.56,3.62,7.78,3.62,12.33v.02Z"/>
        <path class="cls-5" d="m43.9,59.34c0,2.53-.5,4.35-1.48,5.46-.99,1.09-2.36,1.64-4.11,1.64s-3.12-.55-4.13-1.64c-.99-1.1-1.49-2.92-1.49-5.46v-16.15h-8.37v16.39c0,4.4,1.22,7.8,3.67,10.2,2.45,2.39,5.86,3.59,10.24,3.59s7.78-1.2,10.24-3.59c2.45-2.4,3.67-5.8,3.67-10.2v-16.39h-8.24v16.15Z"/>
        <rect class="cls-3" x="57.8" y="43.19" width="8.37" height="29.58"/>
        <path class="cls-5" d="m91.45,59.34c0,2.53-.49,4.35-1.48,5.46-.99,1.09-2.36,1.64-4.11,1.64s-3.12-.55-4.11-1.64c-1.01-1.1-1.51-2.92-1.51-5.46v-16.15h-8.37v16.39c0,4.4,1.23,7.8,3.69,10.2,2.44,2.39,5.85,3.59,10.22,3.59s7.78-1.2,10.24-3.59c2.45-2.4,3.67-5.8,3.67-10.2v-16.39h-8.24v16.15Z"/>
      </g>
      <path class="cls-2" d="m20.5,109.97h.71c1.71,0,3.1,1.39,3.1,3.1v27.73c0,1.71-1.39,3.1-3.1,3.1h-.71c-6.6,0-11.96-5.35-11.96-11.96v-10.02c0-6.6,5.35-11.96,11.96-11.96Z"/>
      <path class="cls-2" d="m114.75,121.93v10.02c0,6.6-5.35,11.96-11.96,11.96h0c-1.71,0-3.1-1.39-3.1-3.1v-27.73c0-1.71,1.39-3.1,3.1-3.1h0c6.6,0,11.96,5.35,11.96,11.96Z"/>
      <g>
        <g>
          <path class="cls-4" d="m44.87,154.31c-6.21,0-11.27-5.05-11.27-11.27v-28.37c0-2.24,1.82-4.07,4.07-4.07h50.69c2.24,0,4.07,1.82,4.07,4.07v28.37c0,6.21-5.05,11.27-11.27,11.27h-36.29Z"/>
          <path class="cls-5" d="m88.37,113.45c.67,0,1.22.55,1.22,1.22v28.37c0,4.64-3.78,8.42-8.42,8.42h-36.29c-4.64,0-8.42-3.78-8.42-8.42v-28.37c0-.67.55-1.22,1.22-1.22h50.69m0-5.69h-50.69c-3.82,0-6.91,3.09-6.91,6.91v28.37c0,7.79,6.32,14.11,14.11,14.11h36.29c7.79,0,14.11-6.32,14.11-14.11v-28.37c0-3.82-3.09-6.91-6.91-6.91h0Z"/>
        </g>
        <rect class="cls-1" x="44.94" y="119.7" width="36.98" height="22.92" rx="7.05" ry="7.05"/>
        <rect class="cls-3" x="53.45" y="126.94" width="20.74" height="8.18" rx="2.52" ry="2.52"/>
      </g>
    </g>
  </g>
</svg>