<?xml version="1.0" encoding="UTF-8"?>
<svg id="Capa_2" data-name="Capa 2" xmlns="http://www.w3.org/2000/svg" viewBox="0 0 228.7 63.51">
  <defs>
    <style>
      .cls-1 {
        font-family: Roboto-Black, Roboto;
        font-size: 40.96px;
        font-weight: 800;
      }

      .cls-2 {
        stroke: #1d1d1b;
        stroke-miterlimit: 10;
        stroke-width: 3.22px;
      }

      .cls-2, .cls-3 {
        fill: #fff;
      }

      .cls-4 {
        letter-spacing: -.02em;
      }

      .cls-4, .cls-5 {
        fill: #e62b3c;
      }

      .cls-3, .cls-6 {
        stroke-width: 0px;
      }

      .cls-6, .cls-7 {
        fill: #1d1d1b;
      }
    </style>
  </defs>
  <g id="Capa_1-2" data-name="Capa 1">
    <g>
      <g>
        <g>
          <rect class="cls-3" x="9.95" y="9.16" width="56.43" height="52.75" rx="18.69" ry="18.69"/>
          <path class="cls-6" d="m47.7,10.77c9.43,0,17.08,7.65,17.08,17.08v15.37c0,9.43-7.65,17.08-17.08,17.08h-19.06c-9.43,0-17.08-7.65-17.08-17.08v-15.37c0-9.43,7.65-17.08,17.08-17.08h19.06m0-3.22h-19.06c-11.19,0-20.3,9.11-20.3,20.3v15.37c0,11.19,9.11,20.3,20.3,20.3h19.06c11.19,0,20.3-9.11,20.3-20.3v-15.37c0-11.19-9.11-20.3-20.3-20.3h0Z"/>
        </g>
        <path class="cls-2" d="m41.7,0c0,1.95-1.58,3.53-3.53,3.53h0c-1.95,0-3.53-1.58-3.53-3.53"/>
        <g>
          <rect class="cls-3" x="1.61" y="16.62" width="73.12" height="37.82" rx="18.69" ry="18.69"/>
          <path class="cls-6" d="m56.04,18.23c9.43,0,17.08,7.65,17.08,17.08v.44c0,9.43-7.65,17.08-17.08,17.08H20.3c-9.43,0-17.08-7.65-17.08-17.08v-.44c0-9.43,7.65-17.08,17.08-17.08h35.74m0-3.22H20.3C9.11,15.01,0,24.12,0,35.31v.44c0,11.19,9.11,20.3,20.3,20.3h35.74c11.19,0,20.3-9.11,20.3-20.3v-.44c0-11.19-9.11-20.3-20.3-20.3h0Z"/>
        </g>
        <g>
          <rect class="cls-3" x="1.61" y="16.62" width="73.12" height="37.82" rx="18.69" ry="18.69"/>
          <path class="cls-6" d="m56.04,18.23c9.43,0,17.08,7.65,17.08,17.08v.44c0,9.43-7.65,17.08-17.08,17.08H20.3c-9.43,0-17.08-7.65-17.08-17.08v-.44c0-9.43,7.65-17.08,17.08-17.08h35.74m0-3.22H20.3C9.11,15.01,0,24.12,0,35.31v.44c0,11.19,9.11,20.3,20.3,20.3h35.74c11.19,0,20.3-9.11,20.3-20.3v-.44c0-11.19-9.11-20.3-20.3-20.3h0Z"/>
        </g>
        <g>
          <path class="cls-3" d="m20.17,50.59c-8.3,0-15.06-6.75-15.06-15.06s6.75-15.06,15.06-15.06h36c8.3,0,15.06,6.75,15.06,15.06s-6.75,15.06-15.06,15.06H20.17Z"/>
          <path class="cls-6" d="m56.17,21.48c7.76,0,14.05,6.29,14.05,14.05h0c0,7.76-6.29,14.05-14.05,14.05H20.17c-7.76,0-14.05-6.29-14.05-14.05h0c0-7.76,6.29-14.05,14.05-14.05h36m0-2.01H20.17c-8.86,0-16.06,7.21-16.06,16.06s7.21,16.06,16.06,16.06h36c8.86,0,16.06-7.21,16.06-16.06s-7.21-16.06-16.06-16.06h0Z"/>
        </g>
        <g>
          <path class="cls-6" d="m23.53,45.16c-2.69,0-4.79-.74-6.3-2.21-1.51-1.47-2.26-3.56-2.26-6.27v-10.1h5.15v9.94c0,1.56.31,2.68.92,3.36.62.68,1.46,1.01,2.54,1.01s1.92-.34,2.52-1.01c.61-.68.91-1.8.91-3.36v-9.94h5.07v10.1c0,2.71-.75,4.8-2.26,6.27-1.51,1.47-3.61,2.21-6.3,2.21Z"/>
          <path class="cls-6" d="m35.58,44.8v-18.21h5.15v18.21h-5.15Z"/>
          <path class="cls-6" d="m52.81,45.16c-2.69,0-4.79-.74-6.3-2.21-1.51-1.47-2.26-3.56-2.26-6.27v-10.1h5.15v9.94c0,1.56.31,2.68.92,3.36.62.68,1.46,1.01,2.54,1.01s1.92-.34,2.52-1.01c.61-.68.91-1.8.91-3.36v-9.94h5.07v10.1c0,2.71-.75,4.8-2.26,6.27-1.51,1.47-3.61,2.21-6.3,2.21Z"/>
        </g>
      </g>
      <text class="cls-1" transform="translate(89.27 43.73)"><tspan class="cls-7" x="0" y="0">codi</tspan><tspan class="cls-5" x="78.57" y="0">b</tspan><tspan class="cls-4" x="101.63" y="0">r</tspan><tspan class="cls-5" x="116.43" y="0">o</tspan></text>
    </g>
  </g>
</svg>