<?xml version="1.0" encoding="UTF-8"?>
<svg id="Capa_2" data-name="Capa 2" xmlns="http://www.w3.org/2000/svg" viewBox="0 0 228.69 63.52">
  <defs>
    <style>
      .cls-1 {
        letter-spacing: -.02em;
      }

      .cls-1, .cls-2 {
        fill: #e62b3c;
      }

      .cls-3 {
        font-family: Roboto-Black, Roboto;
        font-size: 40.96px;
        font-weight: 800;
      }

      .cls-4 {
        stroke-width: 0px;
      }

      .cls-4, .cls-5 {
        fill: #1d1d1b;
      }
    </style>
  </defs>
  <g id="Capa_1-2" data-name="Capa 1">
    <g>
      <g>
        <path class="cls-4" d="m64.35,46.95c-2.31,1.66-5.13,2.63-8.18,2.63H20.16c-3.06,0-5.89-.98-8.19-2.64-.68-.48-1.32-1.03-1.9-1.63.06.54.14,1.08.25,1.61.11.54.24,1.08.4,1.6.68.5,1.41.95,2.17,1.33,2.18,1.12,4.65,1.75,7.27,1.75h36.01c2.61,0,5.09-.63,7.27-1.75.76-.38,1.49-.83,2.17-1.33.16-.52.29-1.06.4-1.6.11-.53.19-1.07.25-1.61-.59.6-1.23,1.15-1.91,1.64Zm-1.73,4.57c-2.03.84-4.25,1.31-6.58,1.31H20.3c-2.34,0-4.56-.47-6.59-1.32-.82-.34-1.61-.75-2.36-1.21.35.86.76,1.68,1.24,2.47h0c.49.84,1.05,1.62,1.66,2.36,3.43,4.14,8.6,6.78,14.39,6.78h19.05c5.78,0,10.95-2.64,14.38-6.77h.01c.61-.74,1.17-1.53,1.66-2.36h0c.48-.8.89-1.61,1.24-2.47-.75.46-1.54.87-2.36,1.21Zm-14.93,8.78h-19.05c-4.46,0-8.53-1.71-11.57-4.5,1.05.16,2.13.25,3.23.25h35.74c1.1,0,2.17-.09,3.22-.25-3.04,2.79-7.11,4.5-11.57,4.5Zm16.06-41.99h0c-.5-.85-1.06-1.64-1.67-2.38h-.01c-3.43-4.13-8.6-6.77-14.38-6.77h-19.05c-5.79,0-10.96,2.64-14.39,6.78-.62.74-1.18,1.52-1.67,2.36h0c-.47.79-.88,1.61-1.23,2.47.75-.46,1.54-.87,2.36-1.21,2.03-.85,4.25-1.32,6.59-1.32h35.74c2.33,0,4.55.47,6.58,1.31.82.34,1.61.75,2.36,1.21-.35-.86-.76-1.67-1.23-2.45Zm-35.11-7.54h19.05c4.46,0,8.53,1.71,11.57,4.5-1.05-.16-2.12-.25-3.22-.25H20.3c-1.1,0-2.18.09-3.23.25,3.04-2.79,7.11-4.5,11.57-4.5Zm37.37,13.38c-.11-.54-.24-1.08-.4-1.6-.68-.5-1.41-.95-2.17-1.33-2.18-1.12-4.66-1.75-7.27-1.75H20.16c-2.62,0-5.09.63-7.27,1.75-.76.38-1.49.83-2.17,1.33-.16.52-.29,1.06-.4,1.6-.11.53-.19,1.07-.25,1.61.58-.6,1.22-1.15,1.9-1.63,2.3-1.66,5.13-2.64,8.19-2.64h36.01c3.05,0,5.87.97,8.18,2.63.68.49,1.32,1.04,1.91,1.64-.06-.54-.14-1.08-.25-1.61Zm-9.72,2.44v9.94c0,1.56-.3,2.68-.91,3.36-.61.67-1.45,1.01-2.53,1.01s-1.92-.34-2.53-1.01c-.62-.68-.93-1.8-.93-3.36v-9.94h-5.15v10.09c0,2.71.76,4.8,2.27,6.28,1.5,1.47,3.6,2.21,6.29,2.21s4.79-.74,6.3-2.21c1.51-1.48,2.26-3.57,2.26-6.28v-10.09h-5.07Zm-20.71,0v18.21h5.15v-18.21h-5.15Zm-8.56,0v9.94c0,1.56-.31,2.68-.91,3.36-.61.67-1.45,1.01-2.53,1.01s-1.92-.34-2.54-1.01c-.61-.68-.92-1.8-.92-3.36v-9.94h-5.15v10.09c0,2.71.75,4.8,2.26,6.28,1.51,1.47,3.61,2.21,6.3,2.21s4.79-.74,6.3-2.21c1.51-1.48,2.26-3.57,2.26-6.28v-10.09h-5.07Z"/>
        <path class="cls-4" d="m66.26,45.31c-.59.6-1.23,1.15-1.91,1.64-.1.5-.23.98-.39,1.46h0c-.15.5-.33.97-.52,1.44.76-.38,1.49-.83,2.17-1.33.74-.54,1.44-1.14,2.08-1.8.1-.58.18-1.17.22-1.77h0c.06-.58.08-1.15.08-1.73v-.09c-.5.79-1.08,1.52-1.73,2.18Zm-1.91,1.64c-.1.5-.23.98-.39,1.46h0c-.15.5-.33.97-.52,1.44.76-.38,1.49-.83,2.17-1.33.16-.52.29-1.06.4-1.6.11-.53.19-1.07.25-1.61-.59.6-1.23,1.15-1.91,1.64Zm0,0c-.1.5-.23.98-.39,1.46h0c-.15.5-.33.97-.52,1.44.76-.38,1.49-.83,2.17-1.33.16-.52.29-1.06.4-1.6.11-.53.19-1.07.25-1.61-.59.6-1.23,1.15-1.91,1.64Zm-51.98,1.47h0c-.16-.49-.29-.98-.4-1.48-.68-.48-1.32-1.03-1.9-1.63-.64-.66-1.22-1.39-1.73-2.18v.09c0,.58.02,1.15.08,1.72h0c.04.61.12,1.2.22,1.78.64.66,1.34,1.26,2.08,1.8.68.5,1.41.95,2.17,1.33-.19-.47-.37-.94-.52-1.43Zm51.98-1.47c-.1.5-.23.98-.39,1.46h0c-.15.5-.33.97-.52,1.44.76-.38,1.49-.83,2.17-1.33.16-.52.29-1.06.4-1.6.11-.53.19-1.07.25-1.61-.59.6-1.23,1.15-1.91,1.64Zm.63,3.36c-.75.46-1.54.87-2.36,1.21-.43.77-.92,1.51-1.46,2.2-.57.74-1.21,1.43-1.9,2.08-3.04,2.79-7.11,4.5-11.57,4.5h-19.05c-4.46,0-8.53-1.71-11.57-4.5-.69-.65-1.32-1.34-1.9-2.08-.55-.69-1.04-1.43-1.46-2.21-.82-.34-1.61-.75-2.36-1.21-.8-.49-1.56-1.05-2.27-1.67.26.95.59,1.87.98,2.75.4.92.87,1.79,1.4,2.63,3.59,5.71,9.95,9.51,17.18,9.51h19.05c7.23,0,13.59-3.8,17.18-9.5.53-.84,1-1.71,1.39-2.63.4-.88.73-1.8.99-2.75-.71.62-1.47,1.18-2.27,1.67Zm-.63-3.36c-.1.5-.23.98-.39,1.46h0c-.15.5-.33.97-.52,1.44.76-.38,1.49-.83,2.17-1.33.16-.52.29-1.06.4-1.6.11-.53.19-1.07.25-1.61-.59.6-1.23,1.15-1.91,1.64Zm1.91-1.64c-.06.54-.14,1.08-.25,1.61-.11.54-.24,1.08-.4,1.6.74-.54,1.44-1.14,2.08-1.8.1-.58.18-1.17.22-1.77h0c.06-.58.08-1.15.08-1.73v-.09c-.5.79-1.08,1.52-1.73,2.18Zm0,0c-.06.54-.14,1.08-.25,1.61-.11.54-.24,1.08-.4,1.6.74-.54,1.44-1.14,2.08-1.8.1-.58.18-1.17.22-1.77h0c.06-.58.08-1.15.08-1.73v-.09c-.5.79-1.08,1.52-1.73,2.18Zm-53.89,3.11h0c-.16-.49-.29-.98-.4-1.48-.68-.48-1.32-1.03-1.9-1.63-.64-.66-1.22-1.39-1.73-2.18v.09c0,.58.02,1.15.08,1.72h0c.04.61.12,1.2.22,1.78.64.66,1.34,1.26,2.08,1.8.68.5,1.41.95,2.17,1.33-.19-.47-.37-.94-.52-1.43Zm53.89-3.11c-.06.54-.14,1.08-.25,1.61-.11.54-.24,1.08-.4,1.6.74-.54,1.44-1.14,2.08-1.8.1-.58.18-1.17.22-1.77h0c.06-.58.08-1.15.08-1.73v-.09c-.5.79-1.08,1.52-1.73,2.18ZM10.72,22.55c-.16.52-.29,1.06-.4,1.6-.11.53-.19,1.07-.25,1.61.58-.6,1.22-1.15,1.9-1.63.11-.5.24-.99.4-1.47h0c.15-.5.33-.97.52-1.44-.76.38-1.49.83-2.17,1.33Zm55.54,22.76c-.06.54-.14,1.08-.25,1.61-.11.54-.24,1.08-.4,1.6.74-.54,1.44-1.14,2.08-1.8.1-.58.18-1.17.22-1.77h0c.06-.58.08-1.15.08-1.73v-.09c-.5.79-1.08,1.52-1.73,2.18ZM10.72,22.55c-.16.52-.29,1.06-.4,1.6-.11.53-.19,1.07-.25,1.61.58-.6,1.22-1.15,1.9-1.63.11-.5.24-.99.4-1.47h0c.15-.5.33-.97.52-1.44-.76.38-1.49.83-2.17,1.33Zm55.29,24.37c-.11.54-.24,1.08-.4,1.6.74-.54,1.44-1.14,2.08-1.8.1-.58.18-1.17.22-1.77h0c.06-.58.08-1.15.08-1.73v-.09c-.5.79-1.08,1.52-1.73,2.18-.06.54-.14,1.08-.25,1.61Zm1.9-20.79h0c-.04-.6-.12-1.19-.22-1.77-.64-.66-1.33-1.27-2.08-1.81-.68-.5-1.41-.95-2.17-1.33.19.47.37.94.52,1.43h0c.16.49.29.97.39,1.47.68.49,1.32,1.04,1.91,1.64.65.67,1.23,1.4,1.73,2.18v-.09c0-.58-.02-1.15-.08-1.72Zm-.66-3.7c-.26-.94-.58-1.85-.98-2.73h0c-.4-.94-.87-1.82-1.41-2.66-3.59-5.7-9.94-9.49-17.17-9.49h-19.05c-7.22,0-13.57,3.79-17.17,9.49-.54.84-1.01,1.73-1.42,2.66h0c-.39.89-.72,1.8-.98,2.74.71-.61,1.47-1.18,2.28-1.67.75-.46,1.54-.87,2.36-1.21.42-.78.92-1.52,1.46-2.21.58-.74,1.22-1.43,1.9-2.08,3.04-2.79,7.11-4.5,11.57-4.5h19.05c4.46,0,8.53,1.71,11.57,4.5.69.65,1.32,1.34,1.9,2.08.54.69,1.03,1.43,1.46,2.2.82.34,1.61.75,2.36,1.21.8.49,1.56,1.05,2.27,1.67Zm-56.93,1.72c-.11.53-.19,1.07-.25,1.61.58-.6,1.22-1.15,1.9-1.63.11-.5.24-.99.4-1.47h0c.15-.5.33-.97.52-1.44-.76.38-1.49.83-2.17,1.33-.16.52-.29,1.06-.4,1.6Zm55.94,21.16c-.06.54-.14,1.08-.25,1.61-.11.54-.24,1.08-.4,1.6.74-.54,1.44-1.14,2.08-1.8.1-.58.18-1.17.22-1.77h0c.06-.58.08-1.15.08-1.73v-.09c-.5.79-1.08,1.52-1.73,2.18ZM10.72,22.55c-.16.52-.29,1.06-.4,1.6-.11.53-.19,1.07-.25,1.61.58-.6,1.22-1.15,1.9-1.63.11-.5.24-.99.4-1.47h0c.15-.5.33-.97.52-1.44-.76.38-1.49.83-2.17,1.33Zm55.54,22.76c-.06.54-.14,1.08-.25,1.61-.11.54-.24,1.08-.4,1.6.74-.54,1.44-1.14,2.08-1.8.1-.58.18-1.17.22-1.77h0c.06-.58.08-1.15.08-1.73v-.09c-.5.79-1.08,1.52-1.73,2.18Zm-53.89,3.11h0c-.16-.49-.29-.98-.4-1.48-.68-.48-1.32-1.03-1.9-1.63-.64-.66-1.22-1.39-1.73-2.18v.09c0,.58.02,1.15.08,1.72h0c.04.61.12,1.2.22,1.78.64.66,1.34,1.26,2.08,1.8.68.5,1.41.95,2.17,1.33-.19-.47-.37-.94-.52-1.43Zm-1.65-25.87c-.75.54-1.44,1.15-2.08,1.81-.1.58-.18,1.17-.22,1.76h0c-.06.58-.08,1.15-.08,1.73v.09c.51-.78,1.09-1.51,1.73-2.18.58-.6,1.22-1.15,1.9-1.63.11-.5.24-.99.4-1.47h0c.15-.5.33-.97.52-1.44-.76.38-1.49.83-2.17,1.33Zm55.54,22.76c-.06.54-.14,1.08-.25,1.61-.11.54-.24,1.08-.4,1.6.74-.54,1.44-1.14,2.08-1.8.1-.58.18-1.17.22-1.77h0c.06-.58.08-1.15.08-1.73v-.09c-.5.79-1.08,1.52-1.73,2.18Zm0,0c-.06.54-.14,1.08-.25,1.61-.11.54-.24,1.08-.4,1.6.74-.54,1.44-1.14,2.08-1.8.1-.58.18-1.17.22-1.77h0c.06-.58.08-1.15.08-1.73v-.09c-.5.79-1.08,1.52-1.73,2.18Zm0,0c-.06.54-.14,1.08-.25,1.61-.11.54-.24,1.08-.4,1.6.74-.54,1.44-1.14,2.08-1.8.1-.58.18-1.17.22-1.77h0c.06-.58.08-1.15.08-1.73v-.09c-.5.79-1.08,1.52-1.73,2.18Z"/>
      </g>
      <path class="cls-4" d="m38.17,5.14c-2.84,0-5.14-2.31-5.14-5.14h3.22c0,1.06.86,1.92,1.92,1.92s1.92-.86,1.92-1.92h3.22c0,2.84-2.31,5.14-5.14,5.14Z"/>
      <g>
        <path class="cls-4" d="m32.09,26.59v10.09c0,2.71-.75,4.8-2.26,6.28-1.51,1.47-3.61,2.21-6.3,2.21s-4.79-.74-6.3-2.21c-1.51-1.48-2.26-3.57-2.26-6.28v-10.09h5.15v9.94c0,1.56.31,2.68.92,3.36.62.67,1.47,1.01,2.54,1.01s1.92-.34,2.53-1.01c.6-.68.91-1.8.91-3.36v-9.94h5.07Z"/>
        <rect class="cls-4" x="35.58" y="26.59" width="5.15" height="18.21"/>
        <path class="cls-4" d="m61.36,26.59v10.09c0,2.71-.75,4.8-2.26,6.28-1.51,1.47-3.61,2.21-6.3,2.21s-4.79-.74-6.29-2.21c-1.51-1.48-2.27-3.57-2.27-6.28v-10.09h5.15v9.94c0,1.56.31,2.68.93,3.36.61.67,1.46,1.01,2.53,1.01s1.92-.34,2.53-1.01c.61-.68.91-1.8.91-3.36v-9.94h5.07Z"/>
        <path class="cls-4" d="m64.35,46.95c-2.31,1.66-5.13,2.63-8.18,2.63H20.16c-3.06,0-5.89-.98-8.19-2.64.11.5.24.99.4,1.47h0c.15.5.33.97.52,1.44,2.18,1.12,4.65,1.75,7.27,1.75h36.01c2.61,0,5.09-.63,7.27-1.75.76-.38,1.49-.83,2.17-1.33.16-.52.29-1.06.4-1.6.11-.53.19-1.07.25-1.61-.59.6-1.23,1.15-1.91,1.64Zm0,0c-2.31,1.66-5.13,2.63-8.18,2.63H20.16c-3.06,0-5.89-.98-8.19-2.64-.68-.48-1.32-1.03-1.9-1.63-.64-.66-1.22-1.39-1.73-2.18-1.41-2.19-2.23-4.8-2.23-7.59h0c0-2.81.82-5.41,2.23-7.6.51-.78,1.09-1.51,1.73-2.18.06-.54.14-1.08.25-1.61.11-.54.24-1.08.4-1.6-.75.54-1.44,1.15-2.08,1.81-2.81,2.89-4.54,6.84-4.54,11.17s1.73,8.3,4.54,11.19c.64.66,1.34,1.26,2.08,1.8.68.5,1.41.95,2.17,1.33,2.18,1.12,4.65,1.75,7.27,1.75h36.01c2.61,0,5.09-.63,7.27-1.75.76-.38,1.49-.83,2.17-1.33.16-.52.29-1.06.4-1.6.11-.53.19-1.07.25-1.61-.59.6-1.23,1.15-1.91,1.64Zm0,0c-2.31,1.66-5.13,2.63-8.18,2.63H20.16c-3.06,0-5.89-.98-8.19-2.64-.68-.48-1.32-1.03-1.9-1.63-.64-.66-1.22-1.39-1.73-2.18-1.41-2.19-2.23-4.8-2.23-7.59h0c0-2.81.82-5.41,2.23-7.6.51-.78,1.09-1.51,1.73-2.18.06-.54.14-1.08.25-1.61.11-.54.24-1.08.4-1.6-.75.54-1.44,1.15-2.08,1.81-2.81,2.89-4.54,6.84-4.54,11.17s1.73,8.3,4.54,11.19c.64.66,1.34,1.26,2.08,1.8.68.5,1.41.95,2.17,1.33,2.18,1.12,4.65,1.75,7.27,1.75h36.01c2.61,0,5.09-.63,7.27-1.75.76-.38,1.49-.83,2.17-1.33.16-.52.29-1.06.4-1.6.11-.53.19-1.07.25-1.61-.59.6-1.23,1.15-1.91,1.64Zm1.92-27.25h0c-.8-.54-1.64-1-2.52-1.39h0c-.83-.39-1.7-.71-2.59-.96-1.63-.47-3.34-.72-5.12-.72H20.3c-1.78,0-3.5.25-5.13.72-.89.25-1.76.57-2.59.95h0c-.88.4-1.73.87-2.53,1.4h0c-5.08,3.34-8.44,9.09-8.44,15.62v.43c0,6.53,3.36,12.29,8.45,15.63.8.53,1.65,1,2.53,1.39h0c.83.38,1.69.7,2.58.95,1.63.47,3.35.72,5.13.72h35.74c1.78,0,3.49-.25,5.12-.72.89-.25,1.75-.56,2.58-.94h0c.88-.4,1.72-.86,2.52-1.39,5.1-3.34,8.47-9.1,8.47-15.64v-.43c0-6.53-3.37-12.29-8.46-15.62Zm6.85,16.05c0,5.15-2.28,9.76-5.87,12.89-.71.62-1.47,1.18-2.27,1.67-.75.46-1.54.87-2.36,1.21-2.03.84-4.25,1.31-6.58,1.31H20.3c-2.34,0-4.56-.47-6.59-1.32-.82-.34-1.61-.75-2.36-1.21-.8-.49-1.56-1.05-2.27-1.67-3.59-3.13-5.86-7.74-5.86-12.88v-.43c0-5.14,2.26-9.74,5.85-12.88.71-.61,1.47-1.18,2.28-1.67.75-.46,1.54-.87,2.36-1.21,2.03-.85,4.25-1.32,6.59-1.32h35.74c2.33,0,4.55.47,6.58,1.31.82.34,1.61.75,2.36,1.21.8.49,1.56,1.05,2.27,1.67,3.59,3.13,5.87,7.74,5.87,12.89v.43Zm-7.51-13.2c-.68-.5-1.41-.95-2.17-1.33-2.18-1.12-4.66-1.75-7.27-1.75H20.16c-2.62,0-5.09.63-7.27,1.75-.76.38-1.49.83-2.17,1.33-.75.54-1.44,1.15-2.08,1.81-2.81,2.89-4.54,6.84-4.54,11.17s1.73,8.3,4.54,11.19c.64.66,1.34,1.26,2.08,1.8.68.5,1.41.95,2.17,1.33,2.18,1.12,4.65,1.75,7.27,1.75h36.01c2.61,0,5.09-.63,7.27-1.75.76-.38,1.49-.83,2.17-1.33.74-.54,1.44-1.14,2.08-1.8,2.81-2.89,4.54-6.83,4.54-11.18s-1.73-8.29-4.54-11.18c-.64-.66-1.33-1.27-2.08-1.81Zm4.61,12.99c0,2.79-.82,5.4-2.23,7.59-.5.79-1.08,1.52-1.73,2.18-.59.6-1.23,1.15-1.91,1.64-2.31,1.66-5.13,2.63-8.18,2.63H20.16c-3.06,0-5.89-.98-8.19-2.64-.68-.48-1.32-1.03-1.9-1.63-.64-.66-1.22-1.39-1.73-2.18-1.41-2.19-2.23-4.8-2.23-7.59h0c0-2.81.82-5.41,2.23-7.6.51-.78,1.09-1.51,1.73-2.18.58-.6,1.22-1.15,1.9-1.63,2.3-1.66,5.13-2.64,8.19-2.64h36.01c3.05,0,5.87.97,8.18,2.63.68.49,1.32,1.04,1.91,1.64.65.67,1.23,1.4,1.73,2.18,1.41,2.19,2.23,4.79,2.23,7.59h0Zm-5.87,11.41c-2.31,1.66-5.13,2.63-8.18,2.63H20.16c-3.06,0-5.89-.98-8.19-2.64-.68-.48-1.32-1.03-1.9-1.63-.64-.66-1.22-1.39-1.73-2.18-1.41-2.19-2.23-4.8-2.23-7.59h0c0-2.81.82-5.41,2.23-7.6.51-.78,1.09-1.51,1.73-2.18.06-.54.14-1.08.25-1.61.11-.54.24-1.08.4-1.6-.75.54-1.44,1.15-2.08,1.81-2.81,2.89-4.54,6.84-4.54,11.17s1.73,8.3,4.54,11.19c.64.66,1.34,1.26,2.08,1.8.68.5,1.41.95,2.17,1.33,2.18,1.12,4.65,1.75,7.27,1.75h36.01c2.61,0,5.09-.63,7.27-1.75.76-.38,1.49-.83,2.17-1.33.16-.52.29-1.06.4-1.6.11-.53.19-1.07.25-1.61-.59.6-1.23,1.15-1.91,1.64Zm0,0c-2.31,1.66-5.13,2.63-8.18,2.63H20.16c-3.06,0-5.89-.98-8.19-2.64-.68-.48-1.32-1.03-1.9-1.63-.64-.66-1.22-1.39-1.73-2.18-1.41-2.19-2.23-4.8-2.23-7.59h0c0-2.81.82-5.41,2.23-7.6.51-.78,1.09-1.51,1.73-2.18.06-.54.14-1.08.25-1.61.11-.54.24-1.08.4-1.6-.75.54-1.44,1.15-2.08,1.81-2.81,2.89-4.54,6.84-4.54,11.17s1.73,8.3,4.54,11.19c.64.66,1.34,1.26,2.08,1.8.68.5,1.41.95,2.17,1.33,2.18,1.12,4.65,1.75,7.27,1.75h36.01c2.61,0,5.09-.63,7.27-1.75.76-.38,1.49-.83,2.17-1.33.16-.52.29-1.06.4-1.6.11-.53.19-1.07.25-1.61-.59.6-1.23,1.15-1.91,1.64Zm0,0c-2.31,1.66-5.13,2.63-8.18,2.63H20.16c-3.06,0-5.89-.98-8.19-2.64.11.5.24.99.4,1.47h0c.15.5.33.97.52,1.44,2.18,1.12,4.65,1.75,7.27,1.75h36.01c2.61,0,5.09-.63,7.27-1.75.76-.38,1.49-.83,2.17-1.33.16-.52.29-1.06.4-1.6.11-.53.19-1.07.25-1.61-.59.6-1.23,1.15-1.91,1.64Z"/>
        <path class="cls-4" d="m64.86,17.04c-.89-.44-1.82-.81-2.78-1.11h-.01c-.91-.28-1.85-.5-2.81-.66-1.05-.16-2.12-.25-3.22-.25H20.3c-1.1,0-2.18.09-3.23.25-.96.16-1.91.38-2.82.67-.96.3-1.89.67-2.78,1.1C4.68,20.33,0,27.29,0,35.32v.43c0,8.03,4.68,14.98,11.46,18.26.89.45,1.83.82,2.79,1.12.91.29,1.86.51,2.82.67,1.05.16,2.13.25,3.23.25h35.74c1.1,0,2.17-.09,3.22-.25.96-.16,1.9-.38,2.81-.66h.01c.96-.31,1.89-.68,2.79-1.12,6.78-3.28,11.46-10.24,11.46-18.27v-.43c0-8.04-4.69-14.99-11.47-18.28Zm8.26,18.71c0,5.15-2.28,9.76-5.87,12.89-.71.62-1.47,1.18-2.27,1.67-.75.46-1.54.87-2.36,1.21-2.03.84-4.25,1.31-6.58,1.31H20.3c-2.34,0-4.56-.47-6.59-1.32-.82-.34-1.61-.75-2.36-1.21-.8-.49-1.56-1.05-2.27-1.67-3.59-3.13-5.86-7.74-5.86-12.88v-.43c0-5.14,2.26-9.74,5.85-12.88.71-.61,1.47-1.18,2.28-1.67.75-.46,1.54-.87,2.36-1.21,2.03-.85,4.25-1.32,6.59-1.32h35.74c2.33,0,4.55.47,6.58,1.31.82.34,1.61.75,2.36,1.21.8.49,1.56,1.05,2.27,1.67,3.59,3.13,5.87,7.74,5.87,12.89v.43Z"/>
      </g>
      <g>
        <path class="cls-4" d="m32.09,26.59v10.09c0,2.71-.75,4.8-2.26,6.28-1.51,1.47-3.61,2.21-6.3,2.21s-4.79-.74-6.3-2.21c-1.51-1.48-2.26-3.57-2.26-6.28v-10.09h5.15v9.94c0,1.56.31,2.68.92,3.36.62.67,1.47,1.01,2.54,1.01s1.92-.34,2.53-1.01c.6-.68.91-1.8.91-3.36v-9.94h5.07Z"/>
        <rect class="cls-4" x="35.58" y="26.59" width="5.15" height="18.21"/>
        <path class="cls-4" d="m61.36,26.59v10.09c0,2.71-.75,4.8-2.26,6.28-1.51,1.47-3.61,2.21-6.3,2.21s-4.79-.74-6.29-2.21c-1.51-1.48-2.27-3.57-2.27-6.28v-10.09h5.15v9.94c0,1.56.31,2.68.93,3.36.61.67,1.46,1.01,2.53,1.01s1.92-.34,2.53-1.01c.61-.68.91-1.8.91-3.36v-9.94h5.07Z"/>
        <path class="cls-4" d="m64.35,46.95c-2.31,1.66-5.13,2.63-8.18,2.63H20.16c-3.06,0-5.89-.98-8.19-2.64.11.5.24.99.4,1.47h0c.15.5.33.97.52,1.44,2.18,1.12,4.65,1.75,7.27,1.75h36.01c2.61,0,5.09-.63,7.27-1.75.76-.38,1.49-.83,2.17-1.33.16-.52.29-1.06.4-1.6.11-.53.19-1.07.25-1.61-.59.6-1.23,1.15-1.91,1.64Zm0,0c-2.31,1.66-5.13,2.63-8.18,2.63H20.16c-3.06,0-5.89-.98-8.19-2.64-.68-.48-1.32-1.03-1.9-1.63-.64-.66-1.22-1.39-1.73-2.18-1.41-2.19-2.23-4.8-2.23-7.59h0c0-2.81.82-5.41,2.23-7.6.51-.78,1.09-1.51,1.73-2.18.06-.54.14-1.08.25-1.61.11-.54.24-1.08.4-1.6-.75.54-1.44,1.15-2.08,1.81-2.81,2.89-4.54,6.84-4.54,11.17s1.73,8.3,4.54,11.19c.64.66,1.34,1.26,2.08,1.8.68.5,1.41.95,2.17,1.33,2.18,1.12,4.65,1.75,7.27,1.75h36.01c2.61,0,5.09-.63,7.27-1.75.76-.38,1.49-.83,2.17-1.33.16-.52.29-1.06.4-1.6.11-.53.19-1.07.25-1.61-.59.6-1.23,1.15-1.91,1.64Zm0,0c-2.31,1.66-5.13,2.63-8.18,2.63H20.16c-3.06,0-5.89-.98-8.19-2.64-.68-.48-1.32-1.03-1.9-1.63-.64-.66-1.22-1.39-1.73-2.18-1.41-2.19-2.23-4.8-2.23-7.59h0c0-2.81.82-5.41,2.23-7.6.51-.78,1.09-1.51,1.73-2.18.06-.54.14-1.08.25-1.61.11-.54.24-1.08.4-1.6-.75.54-1.44,1.15-2.08,1.81-2.81,2.89-4.54,6.84-4.54,11.17s1.73,8.3,4.54,11.19c.64.66,1.34,1.26,2.08,1.8.68.5,1.41.95,2.17,1.33,2.18,1.12,4.65,1.75,7.27,1.75h36.01c2.61,0,5.09-.63,7.27-1.75.76-.38,1.49-.83,2.17-1.33.16-.52.29-1.06.4-1.6.11-.53.19-1.07.25-1.61-.59.6-1.23,1.15-1.91,1.64Zm1.92-27.25h0c-.8-.54-1.64-1-2.52-1.39h0c-.83-.39-1.7-.71-2.59-.96-1.63-.47-3.34-.72-5.12-.72H20.3c-1.78,0-3.5.25-5.13.72-.89.25-1.76.57-2.59.95h0c-.88.4-1.73.87-2.53,1.4h0c-5.08,3.34-8.44,9.09-8.44,15.62v.43c0,6.53,3.36,12.29,8.45,15.63.8.53,1.65,1,2.53,1.39h0c.83.38,1.69.7,2.58.95,1.63.47,3.35.72,5.13.72h35.74c1.78,0,3.49-.25,5.12-.72.89-.25,1.75-.56,2.58-.94h0c.88-.4,1.72-.86,2.52-1.39,5.1-3.34,8.47-9.1,8.47-15.64v-.43c0-6.53-3.37-12.29-8.46-15.62Zm6.85,16.05c0,5.15-2.28,9.76-5.87,12.89-.71.62-1.47,1.18-2.27,1.67-.75.46-1.54.87-2.36,1.21-2.03.84-4.25,1.31-6.58,1.31H20.3c-2.34,0-4.56-.47-6.59-1.32-.82-.34-1.61-.75-2.36-1.21-.8-.49-1.56-1.05-2.27-1.67-3.59-3.13-5.86-7.74-5.86-12.88v-.43c0-5.14,2.26-9.74,5.85-12.88.71-.61,1.47-1.18,2.28-1.67.75-.46,1.54-.87,2.36-1.21,2.03-.85,4.25-1.32,6.59-1.32h35.74c2.33,0,4.55.47,6.58,1.31.82.34,1.61.75,2.36,1.21.8.49,1.56,1.05,2.27,1.67,3.59,3.13,5.87,7.74,5.87,12.89v.43Zm-7.51-13.2c-.68-.5-1.41-.95-2.17-1.33-2.18-1.12-4.66-1.75-7.27-1.75H20.16c-2.62,0-5.09.63-7.27,1.75-.76.38-1.49.83-2.17,1.33-.75.54-1.44,1.15-2.08,1.81-2.81,2.89-4.54,6.84-4.54,11.17s1.73,8.3,4.54,11.19c.64.66,1.34,1.26,2.08,1.8.68.5,1.41.95,2.17,1.33,2.18,1.12,4.65,1.75,7.27,1.75h36.01c2.61,0,5.09-.63,7.27-1.75.76-.38,1.49-.83,2.17-1.33.74-.54,1.44-1.14,2.08-1.8,2.81-2.89,4.54-6.83,4.54-11.18s-1.73-8.29-4.54-11.18c-.64-.66-1.33-1.27-2.08-1.81Zm4.61,12.99c0,2.79-.82,5.4-2.23,7.59-.5.79-1.08,1.52-1.73,2.18-.59.6-1.23,1.15-1.91,1.64-2.31,1.66-5.13,2.63-8.18,2.63H20.16c-3.06,0-5.89-.98-8.19-2.64-.68-.48-1.32-1.03-1.9-1.63-.64-.66-1.22-1.39-1.73-2.18-1.41-2.19-2.23-4.8-2.23-7.59h0c0-2.81.82-5.41,2.23-7.6.51-.78,1.09-1.51,1.73-2.18.58-.6,1.22-1.15,1.9-1.63,2.3-1.66,5.13-2.64,8.19-2.64h36.01c3.05,0,5.87.97,8.18,2.63.68.49,1.32,1.04,1.91,1.64.65.67,1.23,1.4,1.73,2.18,1.41,2.19,2.23,4.79,2.23,7.59h0Zm-5.87,11.41c-2.31,1.66-5.13,2.63-8.18,2.63H20.16c-3.06,0-5.89-.98-8.19-2.64-.68-.48-1.32-1.03-1.9-1.63-.64-.66-1.22-1.39-1.73-2.18-1.41-2.19-2.23-4.8-2.23-7.59h0c0-2.81.82-5.41,2.23-7.6.51-.78,1.09-1.51,1.73-2.18.06-.54.14-1.08.25-1.61.11-.54.24-1.08.4-1.6-.75.54-1.44,1.15-2.08,1.81-2.81,2.89-4.54,6.84-4.54,11.17s1.73,8.3,4.54,11.19c.64.66,1.34,1.26,2.08,1.8.68.5,1.41.95,2.17,1.33,2.18,1.12,4.65,1.75,7.27,1.75h36.01c2.61,0,5.09-.63,7.27-1.75.76-.38,1.49-.83,2.17-1.33.16-.52.29-1.06.4-1.6.11-.53.19-1.07.25-1.61-.59.6-1.23,1.15-1.91,1.64Zm0,0c-2.31,1.66-5.13,2.63-8.18,2.63H20.16c-3.06,0-5.89-.98-8.19-2.64-.68-.48-1.32-1.03-1.9-1.63-.64-.66-1.22-1.39-1.73-2.18-1.41-2.19-2.23-4.8-2.23-7.59h0c0-2.81.82-5.41,2.23-7.6.51-.78,1.09-1.51,1.73-2.18.06-.54.14-1.08.25-1.61.11-.54.24-1.08.4-1.6-.75.54-1.44,1.15-2.08,1.81-2.81,2.89-4.54,6.84-4.54,11.17s1.73,8.3,4.54,11.19c.64.66,1.34,1.26,2.08,1.8.68.5,1.41.95,2.17,1.33,2.18,1.12,4.65,1.75,7.27,1.75h36.01c2.61,0,5.09-.63,7.27-1.75.76-.38,1.49-.83,2.17-1.33.16-.52.29-1.06.4-1.6.11-.53.19-1.07.25-1.61-.59.6-1.23,1.15-1.91,1.64Zm0,0c-2.31,1.66-5.13,2.63-8.18,2.63H20.16c-3.06,0-5.89-.98-8.19-2.64.11.5.24.99.4,1.47h0c.15.5.33.97.52,1.44,2.18,1.12,4.65,1.75,7.27,1.75h36.01c2.61,0,5.09-.63,7.27-1.75.76-.38,1.49-.83,2.17-1.33.16-.52.29-1.06.4-1.6.11-.53.19-1.07.25-1.61-.59.6-1.23,1.15-1.91,1.64Z"/>
        <path class="cls-4" d="m64.86,17.04c-.89-.44-1.82-.81-2.78-1.11h-.01c-.91-.28-1.85-.5-2.81-.66-1.05-.16-2.12-.25-3.22-.25H20.3c-1.1,0-2.18.09-3.23.25-.96.16-1.91.38-2.82.67-.96.3-1.89.67-2.78,1.1C4.68,20.33,0,27.29,0,35.32v.43c0,8.03,4.68,14.98,11.46,18.26.89.45,1.83.82,2.79,1.12.91.29,1.86.51,2.82.67,1.05.16,2.13.25,3.23.25h35.74c1.1,0,2.17-.09,3.22-.25.96-.16,1.9-.38,2.81-.66h.01c.96-.31,1.89-.68,2.79-1.12,6.78-3.28,11.46-10.24,11.46-18.27v-.43c0-8.04-4.69-14.99-11.47-18.28Zm8.26,18.71c0,5.15-2.28,9.76-5.87,12.89-.71.62-1.47,1.18-2.27,1.67-.75.46-1.54.87-2.36,1.21-2.03.84-4.25,1.31-6.58,1.31H20.3c-2.34,0-4.56-.47-6.59-1.32-.82-.34-1.61-.75-2.36-1.21-.8-.49-1.56-1.05-2.27-1.67-3.59-3.13-5.86-7.74-5.86-12.88v-.43c0-5.14,2.26-9.74,5.85-12.88.71-.61,1.47-1.18,2.28-1.67.75-.46,1.54-.87,2.36-1.21,2.03-.85,4.25-1.32,6.59-1.32h35.74c2.33,0,4.55.47,6.58,1.31.82.34,1.61.75,2.36,1.21.8.49,1.56,1.05,2.27,1.67,3.59,3.13,5.87,7.74,5.87,12.89v.43Z"/>
      </g>
      <g>
        <path class="cls-4" d="m32.09,26.59v10.09c0,2.71-.75,4.8-2.26,6.28-1.51,1.47-3.61,2.21-6.3,2.21s-4.79-.74-6.3-2.21c-1.51-1.48-2.26-3.57-2.26-6.28v-10.09h5.15v9.94c0,1.56.31,2.68.92,3.36.62.67,1.47,1.01,2.54,1.01s1.92-.34,2.53-1.01c.6-.68.91-1.8.91-3.36v-9.94h5.07Z"/>
        <rect class="cls-4" x="35.58" y="26.59" width="5.15" height="18.21"/>
        <path class="cls-4" d="m61.36,26.59v10.09c0,2.71-.75,4.8-2.26,6.28-1.51,1.47-3.61,2.21-6.3,2.21s-4.79-.74-6.29-2.21c-1.51-1.48-2.27-3.57-2.27-6.28v-10.09h5.15v9.94c0,1.56.31,2.68.93,3.36.61.67,1.46,1.01,2.53,1.01s1.92-.34,2.53-1.01c.61-.68.91-1.8.91-3.36v-9.94h5.07Z"/>
        <path class="cls-4" d="m67.91,26.13h0c-.57-.72-1.21-1.38-1.9-1.98-.64-.55-1.33-1.05-2.05-1.49h0c-2.28-1.38-4.94-2.18-7.79-2.18H20.16c-2.85,0-5.51.8-7.79,2.17h0c-.72.45-1.41.95-2.05,1.5-.69.6-1.33,1.26-1.9,1.97h0c-2.07,2.59-3.31,5.86-3.31,9.41s1.24,6.83,3.31,9.41h0c.57.72,1.21,1.38,1.9,1.98.64.55,1.33,1.05,2.05,1.49h0c2.28,1.38,4.94,2.18,7.79,2.18h36.01c2.85,0,5.51-.8,7.79-2.17h0c.72-.45,1.41-.95,2.05-1.5.69-.6,1.33-1.26,1.9-1.97h0c2.07-2.59,3.31-5.86,3.31-9.42s-1.24-6.82-3.31-9.4Zm.08,17c-.5.79-1.08,1.52-1.73,2.18-.59.6-1.23,1.15-1.91,1.64-2.31,1.66-5.13,2.63-8.18,2.63H20.16c-3.06,0-5.89-.98-8.19-2.64-.68-.48-1.32-1.03-1.9-1.63-.64-.66-1.22-1.39-1.73-2.18-1.41-2.19-2.23-4.8-2.23-7.59h0c0-2.81.82-5.41,2.23-7.6.51-.78,1.09-1.51,1.73-2.18.58-.6,1.22-1.15,1.9-1.63,2.3-1.66,5.13-2.64,8.19-2.64h36.01c3.05,0,5.87.97,8.18,2.63.68.49,1.32,1.04,1.91,1.64.65.67,1.23,1.4,1.73,2.18,1.41,2.19,2.23,4.79,2.23,7.59h0c0,2.8-.82,5.41-2.23,7.6Z"/>
        <path class="cls-4" d="m67.69,24.36c-.64-.66-1.33-1.27-2.08-1.81-.68-.5-1.41-.95-2.17-1.33-2.18-1.12-4.66-1.75-7.27-1.75H20.16c-2.62,0-5.09.63-7.27,1.75-.76.38-1.49.83-2.17,1.33-.75.54-1.44,1.15-2.08,1.81-2.81,2.89-4.54,6.84-4.54,11.17s1.73,8.3,4.54,11.19c.64.66,1.34,1.26,2.08,1.8.68.5,1.41.95,2.17,1.33,2.18,1.12,4.65,1.75,7.27,1.75h36.01c2.61,0,5.09-.63,7.27-1.75.76-.38,1.49-.83,2.17-1.33.74-.54,1.44-1.14,2.08-1.8,2.81-2.89,4.54-6.83,4.54-11.18s-1.73-8.29-4.54-11.18ZM11.97,46.94c-.68-.48-1.32-1.03-1.9-1.63-.64-.66-1.22-1.39-1.73-2.18-1.41-2.19-2.23-4.8-2.23-7.59h0c0-2.81.82-5.41,2.23-7.6.51-.78,1.09-1.51,1.73-2.18.58-.6,1.22-1.15,1.9-1.63,2.3-1.66,5.13-2.64,8.19-2.64h36.01c3.05,0,5.87.97,8.18,2.63.68.49,1.32,1.04,1.91,1.64.65.67,1.23,1.4,1.73,2.18,1.41,2.19,2.23,4.79,2.23,7.59h0c0,2.8-.82,5.41-2.23,7.6-.5.79-1.08,1.52-1.73,2.18-.59.6-1.23,1.15-1.91,1.64-2.31,1.66-5.13,2.63-8.18,2.63H20.16c-3.06,0-5.89-.98-8.19-2.64Z"/>
      </g>
      <g>
        <path class="cls-4" d="m27.02,26.59v9.94c0,1.56-.31,2.68-.91,3.36-.61.67-1.45,1.01-2.53,1.01s-1.92-.34-2.54-1.01c-.61-.68-.92-1.8-.92-3.36v-9.94h-5.15v10.09c0,2.71.75,4.8,2.26,6.28,1.51,1.47,3.61,2.21,6.3,2.21s4.79-.74,6.3-2.21c1.51-1.48,2.26-3.57,2.26-6.28v-10.09h-5.07Z"/>
        <path class="cls-4" d="m35.58,26.59v18.21h5.15v-18.21h-5.15Z"/>
        <path class="cls-4" d="m56.29,26.59v9.94c0,1.56-.3,2.68-.91,3.36-.61.67-1.45,1.01-2.53,1.01s-1.92-.34-2.53-1.01c-.62-.68-.93-1.8-.93-3.36v-9.94h-5.15v10.09c0,2.71.76,4.8,2.27,6.28,1.5,1.47,3.6,2.21,6.29,2.21s4.79-.74,6.3-2.21c1.51-1.48,2.26-3.57,2.26-6.28v-10.09h-5.07Z"/>
      </g>
      <text class="cls-3" transform="translate(89.26 43.69)"><tspan class="cls-5" x="0" y="0">codi</tspan><tspan class="cls-2" x="78.57" y="0">b</tspan><tspan class="cls-1" x="101.63" y="0">r</tspan><tspan class="cls-2" x="116.43" y="0">o</tspan></text>
    </g>
  </g>
</svg>