<?xml version="1.0" encoding="UTF-8"?>
<svg id="Capa_2" data-name="Capa 2" xmlns="http://www.w3.org/2000/svg" viewBox="0 0 76.33 76.33">
  <defs>
    <style>
      .cls-1 {
        fill: #fff;
      }

      .cls-1, .cls-2 {
        stroke-width: 0px;
      }

      .cls-2 {
        fill: #616160;
      }
    </style>
  </defs>
  <g id="Capa_1-2" data-name="Capa 1">
    <g>
      <circle class="cls-2" cx="38.17" cy="38.17" r="38.17"/>
      <g>
        <path class="cls-1" d="m20.58,48.74c-.96-.69-1.79-1.56-2.44-2.57v.07c0,.8.07,1.59.2,2.35.83.85,1.79,1.56,2.85,2.1-.26-.62-.47-1.28-.62-1.95Zm36.33-.99c-.36.36-.75.69-1.17.99-.15.68-.36,1.33-.62,1.95,1.07-.55,2.03-1.26,2.86-2.11.13-.76.2-1.54.2-2.34v-.07c-.37.57-.8,1.1-1.27,1.58Zm-4.61,6.94c-2.04,1.87-4.76,3.02-7.75,3.02h-12.79c-2.99,0-5.71-1.14-7.75-3.02-.9-.83-1.67-1.8-2.27-2.88-1.14-.48-2.19-1.13-3.11-1.94.36,1.3.91,2.52,1.61,3.64,2.42,3.82,6.68,6.36,11.52,6.36h12.79c4.85,0,9.11-2.54,11.53-6.36.71-1.11,1.25-2.34,1.61-3.64-.92.81-1.97,1.47-3.11,1.94-.6,1.08-1.37,2.05-2.27,2.88Zm3.78-26.02c-2.42-3.82-6.68-6.36-11.53-6.36h-12.79c-4.84,0-9.11,2.54-11.52,6.36-.7,1.11-1.25,2.34-1.61,3.64.92-.81,1.97-1.46,3.11-1.94.6-1.08,1.37-2.05,2.27-2.88,2.04-1.87,4.76-3.02,7.75-3.02h12.79c2.99,0,5.71,1.14,7.75,3.02.9.83,1.67,1.8,2.27,2.88,1.14.48,2.19,1.14,3.11,1.95-.36-1.3-.9-2.52-1.61-3.64Zm-37.73,4.91c-.13.76-.2,1.55-.2,2.35v.06c.36-.57.79-1.1,1.27-1.57.36-.36.75-.7,1.17-.99.15-.67.35-1.33.61-1.95-1.06.54-2.02,1.26-2.85,2.1Zm39.63,0c-.83-.85-1.79-1.57-2.86-2.11.27.62.47,1.28.62,1.95.97.69,1.8,1.57,2.44,2.57v-.07c0-.8-.07-1.58-.2-2.34Z"/>
        <path class="cls-1" d="m37.89,19.92c-1.9,0-3.45-1.55-3.45-3.45h2.16c0,.71.58,1.29,1.29,1.29s1.29-.58,1.29-1.29h2.16c0,1.9-1.55,3.45-3.45,3.45Z"/>
        <path class="cls-1" d="m52.31,27.49c-.7-.11-1.42-.17-2.15-.17h-23.99c-.73,0-1.45.06-2.15.17-.9.83-1.67,1.8-2.27,2.88,1.36-.57,2.85-.88,4.42-.88h23.99c1.57,0,3.06.31,4.42.88-.6-1.08-1.37-2.05-2.27-2.88Zm0,0c-.7-.11-1.42-.17-2.15-.17h-23.99c-.73,0-1.45.06-2.15.17-.9.83-1.67,1.8-2.27,2.88,1.36-.57,2.85-.88,4.42-.88h23.99c1.57,0,3.06.31,4.42.88-.6-1.08-1.37-2.05-2.27-2.88Zm3.78,1.19c-1.18-.57-2.44-.98-3.78-1.19-.7-.11-1.42-.17-2.15-.17h-23.99c-.73,0-1.45.06-2.15.17-1.33.21-2.6.62-3.77,1.18-4.55,2.21-7.7,6.88-7.7,12.27v.3c0,5.39,3.15,10.06,7.7,12.27,1.18.56,2.44.97,3.77,1.18.7.11,1.42.17,2.15.17h23.99c.73,0,1.45-.06,2.15-.17,1.33-.21,2.6-.62,3.78-1.19,4.55-2.21,7.7-6.88,7.7-12.27v-.3c0-5.39-3.15-10.06-7.7-12.27Zm5.54,12.56c0,3.45-1.52,6.53-3.93,8.63-.92.81-1.97,1.47-3.11,1.94-1.36.57-2.85.89-4.42.89h-23.99c-1.57,0-3.07-.31-4.42-.89-1.14-.48-2.19-1.13-3.11-1.94-2.41-2.1-3.93-5.19-3.93-8.63v-.3c0-3.45,1.52-6.54,3.93-8.63.92-.81,1.97-1.46,3.11-1.94,1.36-.57,2.85-.88,4.42-.88h23.99c1.57,0,3.06.31,4.42.88,1.14.48,2.19,1.14,3.11,1.95,2.41,2.1,3.93,5.19,3.93,8.63v.3Zm-9.31-13.75c-.7-.11-1.42-.17-2.15-.17h-23.99c-.73,0-1.45.06-2.15.17-.9.83-1.67,1.8-2.27,2.88,1.36-.57,2.85-.88,4.42-.88h23.99c1.57,0,3.06.31,4.42.88-.6-1.08-1.37-2.05-2.27-2.88Z"/>
        <path class="cls-1" d="m57.98,33.59c-.83-.85-1.79-1.57-2.86-2.11-1.46-.75-3.12-1.17-4.88-1.17h-24.16c-1.76,0-3.41.42-4.88,1.17-1.06.54-2.02,1.26-2.85,2.1-1.89,1.94-3.05,4.59-3.05,7.5s1.16,5.57,3.05,7.51c.83.85,1.79,1.56,2.85,2.1,1.47.75,3.13,1.17,4.88,1.17h24.16c1.76,0,3.41-.42,4.88-1.17,1.07-.55,2.03-1.26,2.86-2.11,1.88-1.94,3.05-4.59,3.05-7.5s-1.16-5.56-3.05-7.5Zm-1.07,14.17c-.36.36-.75.69-1.17.99-1.55,1.11-3.45,1.77-5.5,1.77h-24.16c-2.05,0-3.95-.66-5.5-1.77-.96-.69-1.79-1.56-2.44-2.57-.94-1.47-1.49-3.21-1.49-5.09s.55-3.63,1.49-5.09c.36-.57.79-1.1,1.27-1.57.36-.36.75-.7,1.17-.99,1.55-1.11,3.45-1.77,5.5-1.77h24.16c2.05,0,3.95.66,5.5,1.77.97.69,1.8,1.57,2.44,2.57.94,1.47,1.49,3.21,1.49,5.09s-.55,3.62-1.49,5.09c-.37.57-.8,1.1-1.27,1.58Zm-1.79-16.27c-1.46-.75-3.12-1.17-4.88-1.17h-24.16c-1.76,0-3.41.42-4.88,1.17-.26.62-.47,1.28-.61,1.95,1.55-1.11,3.45-1.77,5.5-1.77h24.16c2.05,0,3.95.66,5.5,1.77-.15-.67-.35-1.33-.62-1.95Z"/>
        <g>
          <path class="cls-1" d="m30.68,35.08v6.67c0,1.05-.2,1.8-.61,2.25-.41.45-.97.68-1.69.68s-1.29-.23-1.7-.68c-.41-.46-.62-1.21-.62-2.25v-6.67h-3.46v6.78c0,1.82.51,3.22,1.52,4.21,1.01.99,2.42,1.49,4.22,1.49s3.21-.5,4.23-1.49c1.01-.99,1.52-2.39,1.52-4.21v-6.78h-3.41Z"/>
          <path class="cls-1" d="m36.43,35.08v12.23h3.46v-12.23h-3.46Z"/>
          <path class="cls-1" d="m50.33,35.08v6.67c0,1.05-.2,1.8-.61,2.25-.41.45-.97.68-1.69.68s-1.29-.23-1.7-.68c-.41-.46-.62-1.21-.62-2.25v-6.67h-3.46v6.78c0,1.82.51,3.22,1.52,4.21,1.01.99,2.42,1.49,4.22,1.49s3.21-.5,4.22-1.49c1.01-.99,1.52-2.39,1.52-4.21v-6.78h-3.41Z"/>
        </g>
      </g>
    </g>
  </g>
</svg>