<?xml version="1.0" encoding="UTF-8"?>
<svg id="Capa_2" data-name="Capa 2" xmlns="http://www.w3.org/2000/svg" viewBox="0 0 93.39 111.96">
  <defs>
    <style>
      .cls-1 {
        stroke: #1d1d1b;
        stroke-miterlimit: 10;
        stroke-width: 3.94px;
      }

      .cls-1, .cls-2 {
        fill: #fff;
      }

      .cls-3 {
        font-family: Roboto-Black, Roboto;
        font-size: 27.43px;
        font-weight: 800;
      }

      .cls-2, .cls-4 {
        stroke-width: 0px;
      }

      .cls-5 {
        letter-spacing: -.02em;
      }

      .cls-5, .cls-6 {
        fill: #e62b3c;
      }

      .cls-4, .cls-7 {
        fill: #1d1d1b;
      }
    </style>
  </defs>
  <g id="Capa_1-2" data-name="Capa 1">
    <g>
      <g>
        <g>
          <path class="cls-2" d="m35.04,11.2h23.31c12.62,0,22.86,10.24,22.86,22.86v18.8c0,12.62-10.24,22.86-22.86,22.86h-23.31c-12.62,0-22.86-10.24-22.86-22.86v-18.8c0-12.62,10.24-22.86,22.86-22.86Z"/>
          <path class="cls-4" d="m58.35,13.17c11.54,0,20.89,9.35,20.89,20.89v18.8c0,11.54-9.35,20.89-20.89,20.89h-23.31c-11.54,0-20.89-9.35-20.89-20.89v-18.8c0-11.54,9.35-20.89,20.89-20.89h23.31m0-3.94h-23.31c-13.69,0-24.83,11.14-24.83,24.83v18.8c0,13.69,11.14,24.83,24.83,24.83h23.31c13.69,0,24.83-11.14,24.83-24.83v-18.8c0-13.69-11.14-24.83-24.83-24.83h0Z"/>
        </g>
        <path class="cls-1" d="m51.02,0c0,2.39-1.94,4.32-4.32,4.32h0c-2.39,0-4.32-1.94-4.32-4.32"/>
        <g>
          <rect class="cls-2" x="1.97" y="20.33" width="89.45" height="46.26" rx="22.86" ry="22.86"/>
          <path class="cls-4" d="m68.55,22.3c11.54,0,20.89,9.35,20.89,20.89v.54c0,11.54-9.35,20.89-20.89,20.89H24.83c-11.54,0-20.89-9.35-20.89-20.89v-.54c0-11.54,9.35-20.89,20.89-20.89h43.72m0-3.94H24.83C11.14,18.37,0,29.51,0,43.2v.54c0,13.69,11.14,24.83,24.83,24.83h43.72c13.69,0,24.83-11.14,24.83-24.83v-.54c0-13.69-11.14-24.83-24.83-24.83h0Z"/>
        </g>
        <g>
          <rect class="cls-2" x="1.97" y="20.33" width="89.45" height="46.26" rx="22.86" ry="22.86"/>
          <path class="cls-4" d="m68.55,22.3c11.54,0,20.89,9.35,20.89,20.89v.54c0,11.54-9.35,20.89-20.89,20.89H24.83c-11.54,0-20.89-9.35-20.89-20.89v-.54c0-11.54,9.35-20.89,20.89-20.89h43.72m0-3.94H24.83C11.14,18.37,0,29.51,0,43.2v.54c0,13.69,11.14,24.83,24.83,24.83h43.72c13.69,0,24.83-11.14,24.83-24.83v-.54c0-13.69-11.14-24.83-24.83-24.83h0Z"/>
        </g>
        <g>
          <path class="cls-2" d="m24.67,61.89c-10.16,0-18.42-8.26-18.42-18.42s8.26-18.42,18.42-18.42h44.04c10.16,0,18.42,8.26,18.42,18.42s-8.26,18.42-18.42,18.42H24.67Z"/>
          <path class="cls-4" d="m68.72,26.28c9.49,0,17.19,7.7,17.19,17.19h0c0,9.49-7.7,17.19-17.19,17.19H24.67c-9.49,0-17.19-7.7-17.19-17.19h0c0-9.49,7.7-17.19,17.19-17.19h44.04m0-2.46H24.67c-10.83,0-19.65,8.81-19.65,19.65s8.81,19.65,19.65,19.65h44.04c10.83,0,19.65-8.81,19.65-19.65s-8.81-19.65-19.65-19.65h0Z"/>
        </g>
        <g>
          <path class="cls-4" d="m28.79,55.25c-3.29,0-5.86-.9-7.7-2.71-1.85-1.8-2.77-4.36-2.77-7.67v-12.35h6.3v12.16c0,1.91.38,3.28,1.13,4.11.75.83,1.79,1.24,3.1,1.24s2.34-.41,3.09-1.24c.74-.83,1.11-2.2,1.11-4.11v-12.16h6.21v12.35c0,3.31-.92,5.87-2.77,7.67-1.85,1.8-4.41,2.71-7.7,2.71Z"/>
          <path class="cls-4" d="m43.53,54.81v-22.28h6.3v22.28h-6.3Z"/>
          <path class="cls-4" d="m64.6,55.25c-3.29,0-5.86-.9-7.7-2.71-1.85-1.8-2.77-4.36-2.77-7.67v-12.35h6.3v12.16c0,1.91.38,3.28,1.13,4.11.75.83,1.79,1.24,3.1,1.24s2.34-.41,3.09-1.24c.74-.83,1.11-2.2,1.11-4.11v-12.16h6.21v12.35c0,3.31-.92,5.87-2.77,7.67-1.85,1.8-4.41,2.71-7.7,2.71Z"/>
        </g>
      </g>
      <text class="cls-3" transform="translate(0 104.52)"><tspan class="cls-7" x="0" y="0">codi</tspan><tspan class="cls-6" x="52.62" y="0">b</tspan><tspan class="cls-5" x="68.07" y="0">r</tspan><tspan class="cls-6" x="77.98" y="0">o</tspan></text>
    </g>
  </g>
</svg>